# xmcd
#
# Track frame offsets: 
#        150
#        19443
#        37922
#        51687
#
# Disc length: 894 seconds
#
# Revision: 2
# Processed by: cddbd v1.5.2PL0 Copyright (c) Steve Scherf et al.
# Submitted via: ExactAudioCopy v0.99pb4
#
DISCID=33037c04
DTITLE=Scott Law - Satellite 43
DYEAR=2006
DGENRE=Folk/Rock
TTITLE0=Pieces Fall
TTITLE1=Only The End
TTITLE2=Fallout Shelter
TTITLE3=Deliver
EXTD=YEAR: 2001
EXTT0=
EXTT1=
EXTT2=
EXTT3=
PLAYORDER=
